<svg xmlns="http://www.w3.org/2000/svg" viewBox="0 0 100 100" width="32" height="32">
  <style>
    .bg { fill: #0d6efd; } /* Bootstrap primary blue */
    .plane { fill: #ffffff; }
  </style>
  <circle class="bg" cx="50" cy="50" r="50"/>
  <path class="plane" d="M84.3,53.2c0.2-1.3-0.1-2.6-0.8-3.7c-0.7-1-1.8-1.8-3-2.1l-25.8-6.9v-9.3c0-2.3-1.2-4.4-3.1-5.6V12.1c0-1.9-1.5-3.4-3.4-3.4c-1.9,0-3.4,1.5-3.4,3.4v13.5c-1.9,1.2-3.1,3.3-3.1,5.6v9.3L15.9,47.3c-1.2,0.3-2.3,1.1-3,2.1c-0.7,1-1,2.4-0.8,3.7c-0.1,1.2,0.3,2.4,1.1,3.3c0.8,0.9,2,1.5,3.2,1.5l26.1,1.1v13.6c0,1,0.2,2.1,0.6,3c0.4,1,1.1,1.9,2,2.6l4.1,3.1c0.5,0.4,1.1,0.5,1.7,0.5c0.6,0,1.2-0.2,1.7-0.5l4.1-3.1c0.9-0.7,1.6-1.6,2-2.6c0.4-1,0.6-2,0.6-3V58.1l26.1-1.1c1.2-0.1,2.4-0.6,3.2-1.5C84.1,55.6,84.4,54.4,84.3,53.2z"/>
</svg>